<svg id="Capa_1" enable-background="new 0 0 494.557 494.557" height="512" viewBox="0 0 494.557 494.557" width="512" xmlns="http://www.w3.org/2000/svg"><g><path d="m382.632 59.553c-21.938-16.949-40.938-34.051-67.841-38.931-9.872-12.808-55.89-9.304-71.635-12.23-148.099-6.398-260.795 160.862-218.399 307.505 173.528 317.424 596.939 8.617 357.875-256.344z" fill="#41efcd"/><g fill="#2e386b"><path d="m259.573 177.699c5.508-8.146 28.623-26.439 23.08-35.986-2.372-4.32-7.915-5.729-12.094-3.145-38.437 23.533-95.374 67.83-90.205 118.128 3.704 23.054 20.357 40.827 35.965 56.747 16.711 16.651 34.388 31.678 51.283 47.672 7.794 7.591 19.677-4.788 11.613-12.245-20.893-22.375-85.488-71.199-73.902-103.666 11.358-26.459 35.719-45.567 54.26-67.505z"/><path d="m492.137 213.485c-25.885-177.77-243.542-279.814-388.699-164.185-43.929 34.104-80.612 79.927-95.286 134.288-52.974 196.439 162.611 388.224 346.272 279.062 3.494-1.558 10.933-6.676 14.372-8.551 12.545-7.958.123-26.647-12.056-18.195-33.712 23.155-73.615 38.451-114.754 39.362-174.29 4.84-290.446-222.914-177.321-358.603 14.956-18.724 32.623-35.813 51.623-50.397 130.466-103.572 328.582-9.101 349.01 150.935 14.807 112.992-63.508 156.407-34.981 173.921 6.984 4.461 16.259 2.417 20.72-4.564 8.088-12.659 15.355-25.897 21.517-39.691 18.749-41.43 26.317-88.249 19.583-133.382z"/></g></g></svg>